<svg width="2260" height="1215" xmlns="http://www.w3.org/2000/svg" xmlns:xlink="http://www.w3.org/1999/xlink" xml:space="preserve" overflow="hidden"><g transform="translate(-1072 -632)"><g><path d="M2111 1118.26C2111 1113.78 2104.13 1110 2095.9 1110L1665.76 1110C1657.52 1110 1651 1113.44 1651 1118.26L1651 1359.74C1651 1364.22 1657.87 1368 1665.76 1368L2095.9 1368C2104.48 1368 2111 1364.56 2111 1359.74L2111 1118.26" fill="#2A86C0" fill-rule="evenodd" fill-opacity="1"/><path d="M1769 1231.31 1769 1175 1783.1 1175C1788.83 1175 1793.41 1176.37 1796.85 1179.12 1800.05 1182.1 1801.66 1185.99 1801.66 1190.8 1801.66 1194 1800.86 1196.75 1799.25 1199.04 1797.65 1201.33 1795.36 1203.16 1792.38 1204.53 1793.98 1205.67 1795.7 1207.28 1797.54 1209.34 1799.14 1211.4 1801.43 1214.94 1804.41 1219.98L1809.57 1227.19 1812.32 1231.31 1802.69 1231.31 1800.29 1227.54 1799.94 1226.85 1798.22 1224.45 1795.82 1220.67 1793.07 1216.2 1788.6 1210.71 1784.81 1207.62C1783.67 1206.93 1781.83 1206.59 1779.31 1206.59L1777.25 1206.59 1777.25 1231.31 1769 1231.31ZM1779.31 1181.87 1777.25 1181.87 1777.25 1199.72 1780 1199.72C1784.13 1199.72 1786.99 1199.38 1788.6 1198.69 1789.97 1197.78 1791.12 1196.63 1792.03 1195.26 1792.95 1193.89 1793.41 1192.28 1793.41 1190.45 1793.41 1188.85 1792.95 1187.25 1792.03 1185.64 1791.12 1184.27 1789.74 1183.24 1787.91 1182.55 1786.3 1182.1 1783.55 1181.87 1779.66 1181.87ZM1835.35 1194.23C1841.08 1194.23 1845.78 1196.06 1849.45 1199.72 1853.12 1203.16 1854.95 1207.73 1854.95 1213.46 1854.95 1218.72 1853.12 1223.07 1849.45 1226.51 1845.55 1230.17 1840.74 1232 1835.01 1232 1829.51 1232 1824.93 1230.17 1821.26 1226.51 1817.59 1222.84 1815.76 1218.27 1815.76 1212.77 1815.76 1207.51 1817.59 1203.04 1821.26 1199.38 1824.93 1195.95 1829.62 1194.23 1835.35 1194.23ZM1835.35 1200.75C1831.68 1200.75 1828.71 1201.9 1826.41 1204.19 1824.12 1206.48 1822.98 1209.45 1822.98 1213.11 1822.98 1216.55 1824.12 1219.41 1826.41 1221.7 1828.71 1223.99 1831.68 1225.13 1835.35 1225.13 1839.02 1225.13 1842 1223.99 1844.29 1221.7 1846.58 1219.41 1847.73 1216.44 1847.73 1212.77 1847.73 1209.34 1846.58 1206.48 1844.29 1204.19 1841.77 1201.9 1838.68 1200.75 1835.01 1200.75ZM1886.92 1231.31 1886.92 1226.51C1885.32 1228.11 1883.48 1229.37 1881.42 1230.28 1879.36 1231.43 1877.41 1232 1875.58 1232 1873.28 1232 1870.99 1231.43 1868.7 1230.28 1866.87 1228.91 1865.49 1227.31 1864.58 1225.48 1863.43 1223.19 1862.86 1219.75 1862.86 1215.17L1862.86 1194.23 1870.42 1194.23 1870.42 1215.17C1870.42 1219.07 1870.99 1221.81 1872.14 1223.42 1873.28 1225.02 1875.23 1225.82 1877.98 1225.82 1881.42 1225.82 1884.4 1224.1 1886.92 1220.67L1886.92 1194.23 1893.8 1194.23 1893.8 1231.31 1886.92 1231.31ZM1899.3 1200.07 1913.05 1186.33 1913.05 1194.23 1924.74 1194.23 1924.74 1201.1 1913.05 1201.1 1913.05 1218.95C1913.05 1223.07 1914.77 1225.13 1918.21 1225.13 1920.96 1225.13 1923.82 1224.33 1926.8 1222.73L1926.8 1229.6C1923.82 1231.2 1920.73 1232 1917.52 1232 1914.08 1232 1911.22 1230.97 1908.93 1228.91L1907.21 1226.85 1906.18 1224.1 1905.83 1217.24 1905.83 1200.75 1898.96 1200.75 1898.96 1200.07ZM1963.59 1213.46 1937.46 1213.46C1937.69 1216.89 1938.84 1219.64 1940.9 1221.7 1943.19 1223.99 1946.06 1225.13 1949.49 1225.13 1954.31 1225.13 1958.89 1223.53 1963.25 1220.33L1963.25 1227.54C1960.95 1229.14 1958.66 1230.28 1956.37 1230.97 1954.08 1231.43 1951.44 1231.66 1948.46 1231.66 1944.34 1231.66 1941.01 1230.86 1938.49 1229.25 1936.2 1227.65 1934.14 1225.36 1932.3 1222.39 1930.93 1219.64 1930.24 1216.32 1930.24 1212.43 1930.24 1206.93 1931.85 1202.36 1935.05 1198.69 1938.26 1195.26 1942.39 1193.54 1947.43 1193.54 1952.24 1193.54 1956.14 1195.26 1959.12 1198.69 1962.1 1202.13 1963.59 1206.7 1963.59 1212.43L1963.59 1213.46ZM1937.8 1208.99 1956.37 1208.99C1956.37 1206.02 1955.45 1203.73 1953.62 1202.13 1952.01 1200.52 1949.95 1199.72 1947.43 1199.72 1944.68 1199.72 1942.5 1200.52 1940.9 1202.13 1939.29 1203.73 1938.15 1206.02 1937.46 1208.99ZM1979.4 1194.23 1979.4 1202.81 1979.75 1202.13C1983.19 1196.4 1986.62 1193.54 1990.06 1193.54 1993.04 1193.54 1996.02 1194.92 1999 1197.66L1995.22 1204.19C1992.7 1201.9 1990.41 1200.75 1988.34 1200.75 1985.82 1200.75 1983.64 1201.78 1981.81 1203.84 1980.2 1206.13 1979.4 1208.76 1979.4 1211.74L1979.4 1231.31 1971.84 1231.31 1971.84 1194.23 1979.4 1194.23Z" fill="#FFFFFF" fill-rule="evenodd" fill-opacity="1"/><path d="M3329 1334.81C3329 1325.88 3313.87 1319 3295.65 1319L2338.35 1319C2320.13 1319 2305 1325.88 2305 1334.81L2305 1796.84C2305 1805.78 2320.13 1813 2338.35 1813L3295.65 1813C3313.87 1813 3329 1806.12 3329 1796.84L3329 1334.81" fill="#5CA831" fill-rule="evenodd" fill-opacity="1"/><path d="M3329.5 1335.31C3329.5 1326.38 3314.37 1319.5 3296.15 1319.5L2338.85 1319.5C2320.63 1319.5 2305.5 1326.38 2305.5 1335.31L2305.5 1797.34C2305.5 1806.28 2320.63 1813.5 2338.85 1813.5L3296.15 1813.5C3314.37 1813.5 3329.5 1806.62 3329.5 1797.34L3329.5 1335.31" stroke="#5CA831" stroke-width="3.4375" stroke-linecap="butt" stroke-linejoin="miter" stroke-miterlimit="8" stroke-opacity="1" fill="none" fill-rule="evenodd"/><path d="M3329 683.89C3329 673.587 3313.87 665 3295.65 665L2338.35 665C2320.13 665 2305 673.243 2305 683.89L2305 1223.11C2305 1233.41 2320.13 1242 2338.35 1242L3295.65 1242C3313.87 1242 3329 1233.76 3329 1223.11L3329 684.234" fill="#5CA831" fill-rule="evenodd" fill-opacity="1"/><path d="M3329.5 684.39C3329.5 674.086 3314.37 665.5 3296.15 665.5L2338.85 665.5C2320.63 665.5 2305.5 673.743 2305.5 684.39L2305.5 1223.61C2305.5 1233.91 2320.63 1242.5 2338.85 1242.5L3296.15 1242.5C3314.37 1242.5 3329.5 1234.26 3329.5 1223.61L3329.5 684.733" stroke="#5CA831" stroke-width="3.4375" stroke-linecap="butt" stroke-linejoin="miter" stroke-miterlimit="8" stroke-opacity="1" fill="none" fill-rule="evenodd"/><path d="M3062 890 3226 890 3226 1108 3062 1108Z" fill="#FFFFFF" fill-rule="evenodd" fill-opacity="1"/><path d="M3062.5 890.5 3226.5 890.5 3226.5 1108.5 3062.5 1108.5Z" stroke="#D33907" stroke-width="3.4375" stroke-linecap="butt" stroke-linejoin="miter" stroke-miterlimit="8" stroke-opacity="1" fill="none" fill-rule="evenodd"/><path d="M3033 915 3202 915 3202 1135 3033 1135Z" fill="#FFFFFF" fill-rule="evenodd" fill-opacity="1"/><path d="M3033.5 915.5 3202.5 915.5 3202.5 1135.5 3033.5 1135.5Z" stroke="#D33907" stroke-width="3.4375" stroke-linecap="butt" stroke-linejoin="miter" stroke-miterlimit="8" stroke-opacity="1" fill="none" fill-rule="evenodd"/><path d="M3012 940 3176 940 3176 1156 3012 1156Z" fill="#FFFFFF" fill-rule="evenodd" fill-opacity="1"/><path d="M3012.5 940.5 3176.5 940.5 3176.5 1156.5 3012.5 1156.5Z" stroke="#D33907" stroke-width="3.4375" stroke-linecap="butt" stroke-linejoin="miter" stroke-miterlimit="8" stroke-opacity="1" fill="none" fill-rule="evenodd"/><path d="M2983 965 3152 965 3152 1185 2983 1185Z" fill="#FFFFFF" fill-rule="evenodd" fill-opacity="1"/><path d="M2983.5 965.5 3152.5 965.5 3152.5 1185.5 2983.5 1185.5Z" stroke="#D33907" stroke-width="3.4375" stroke-linecap="butt" stroke-linejoin="miter" stroke-miterlimit="8" stroke-opacity="1" fill="none" fill-rule="evenodd"/><path d="M2946.5 864.5 3259.5 864.5 3259.5 1211.5 2946.5 1211.5Z" stroke="#D33907" stroke-width="3.4375" stroke-linecap="butt" stroke-linejoin="miter" stroke-miterlimit="8" stroke-opacity="1" fill="none" fill-rule="evenodd"/><path d="M2993.8 824.939 2993.8 832.176C2988.52 835.162 2982.54 836.656 2975.88 836.656 2970.37 836.656 2965.66 835.507 2961.75 833.21 2957.85 830.912 2954.74 827.811 2952.45 823.906 2950.15 820 2949 815.865 2949 811.5 2949 804.149 2951.64 798.061 2956.93 793.237 2961.98 788.413 2968.3 786 2975.88 786 2981.16 786 2986.91 787.379 2993.11 790.135L2993.11 797.716C2987.37 794.27 2981.74 792.548 2976.22 792.548 2970.48 792.548 2965.89 794.385 2962.44 798.061 2958.54 801.507 2956.58 805.987 2956.58 811.5 2956.58 816.784 2958.42 821.149 2962.1 824.595 2965.77 828.27 2970.37 830.108 2975.88 830.108 2982.08 830.108 2988.06 828.27 2993.8 824.595ZM3017.23 803.575C3022.06 803.575 3026.08 805.183 3029.3 808.399 3032.74 811.615 3034.46 815.635 3034.46 820.46 3034.46 825.054 3032.74 828.96 3029.3 832.176 3026.08 835.392 3021.94 837 3016.89 837 3012.06 837 3007.93 835.392 3004.48 832.176 3001.27 828.96 2999.66 825.054 2999.66 820.46 2999.66 815.635 3001.27 811.615 3004.48 808.399 3007.93 805.183 3012.18 803.575 3017.23 803.575ZM3016.89 809.433C3013.67 809.433 3011.14 810.466 3009.31 812.534 3007.24 814.602 3006.21 817.128 3006.21 820.115 3006.21 823.331 3007.24 825.973 3009.31 828.041 3011.38 829.878 3013.9 830.797 3016.89 830.797 3020.1 830.797 3022.75 829.764 3024.82 827.696 3026.88 825.858 3027.92 823.331 3027.92 820.115 3027.92 817.128 3026.77 814.602 3024.47 812.534 3022.4 810.466 3019.88 809.433 3016.89 809.433ZM3041.7 787.034 3047.9 787.034 3047.9 836.311 3042.05 836.311 3042.05 787.034ZM3057.55 787.034 3064.1 787.034 3064.1 836.311 3057.21 836.311 3057.21 787.034ZM3100.98 820.46 3078.23 820.46C3078.23 823.676 3079.26 826.203 3081.33 828.041 3083.17 829.878 3085.7 830.797 3088.91 830.797 3093.05 830.797 3096.95 829.419 3100.63 826.662L3100.63 833.21 3094.77 835.966C3092.7 836.426 3090.41 836.656 3087.88 836.656 3084.2 836.656 3081.22 835.966 3078.92 834.588 3076.62 832.98 3074.9 831.027 3073.75 828.73 3072.37 826.203 3071.68 823.216 3071.68 819.77 3071.68 814.946 3073.06 810.926 3075.82 807.71 3078.81 804.723 3082.48 803.23 3086.85 803.23 3091.21 803.23 3094.66 804.723 3097.18 807.71 3099.71 810.696 3100.98 814.716 3100.98 819.77L3100.98 820.46ZM3078.23 817.014 3094.77 817.014C3094.77 814.257 3093.97 812.189 3092.36 810.811 3090.98 809.433 3089.14 808.743 3086.85 808.743 3084.55 808.743 3082.71 809.433 3081.33 810.811 3079.72 812.189 3078.69 814.142 3078.23 816.669ZM3132.34 828.73 3132.34 834.932C3129.12 836.311 3126.02 837 3123.03 837 3117.75 837 3113.61 835.392 3110.62 832.176 3107.64 829.189 3106.14 825.169 3106.14 820.115 3106.14 815.061 3107.75 811.041 3110.97 808.054 3113.96 805.068 3117.86 803.575 3122.69 803.575L3127.17 803.919C3128.54 804.149 3130.15 804.723 3131.99 805.642L3131.99 812.534C3128.78 810.466 3125.79 809.433 3123.03 809.433 3120.04 809.433 3117.75 810.466 3116.14 812.534 3114.07 814.602 3113.04 817.243 3113.04 820.46 3113.04 823.676 3114.07 826.318 3116.14 828.385 3118.21 830.223 3120.85 831.142 3124.06 831.142 3126.59 831.142 3129.46 830.453 3132.68 829.075ZM3135.09 808.743 3147.15 797.027 3147.15 803.919 3157.49 803.919 3157.49 809.433 3147.15 809.433 3147.15 825.629C3147.15 829.304 3148.76 831.142 3151.98 831.142 3154.28 831.142 3156.57 830.338 3158.87 828.73L3158.87 834.588C3156.57 836.196 3153.93 837 3150.94 837 3147.96 837 3145.54 836.081 3143.71 834.243 3143.02 833.784 3142.56 833.21 3142.33 832.521L3141.3 830.108C3140.84 828.96 3140.61 826.892 3140.61 823.906L3140.61 809.433 3135.09 809.433 3135.09 808.743ZM3167.14 790.135C3168.29 790.135 3169.21 790.48 3169.9 791.169 3170.59 791.858 3170.93 792.777 3170.93 793.926 3170.93 794.845 3170.59 795.763 3169.9 796.683 3169.21 797.372 3168.29 797.716 3167.14 797.716 3166.22 797.716 3165.3 797.372 3164.38 796.683 3163.7 795.763 3163.35 794.845 3163.35 793.926 3163.35 793.007 3163.7 792.088 3164.38 791.169 3165.3 790.48 3166.22 790.135 3167.14 790.135ZM3163.7 803.919 3170.59 803.919 3170.59 836.311 3163.7 836.311 3163.7 803.919ZM3195.06 803.575C3200.11 803.575 3204.25 805.183 3207.46 808.399 3210.68 811.615 3212.29 815.635 3212.29 820.46 3212.29 825.054 3210.68 828.96 3207.46 832.176 3204.25 835.392 3200.11 837 3195.06 837 3190 837 3185.86 835.392 3182.65 832.176 3179.43 828.96 3177.82 825.054 3177.82 820.46 3177.82 815.635 3179.43 811.615 3182.65 808.399 3186.1 805.183 3190.23 803.575 3195.06 803.575ZM3195.06 809.433C3191.84 809.433 3189.2 810.466 3187.13 812.534 3185.29 814.602 3184.37 817.128 3184.37 820.115 3184.37 823.331 3185.41 825.973 3187.47 828.041 3189.31 829.878 3191.84 830.797 3195.06 830.797 3198.27 830.797 3200.91 829.764 3202.98 827.696 3205.05 825.858 3206.08 823.331 3206.08 820.115 3206.08 817.128 3204.94 814.602 3202.64 812.534 3200.57 810.466 3197.93 809.433 3194.71 809.433ZM3226.07 803.919 3226.07 808.054C3228.83 804.838 3232.04 803.23 3235.72 803.23 3237.79 803.23 3239.62 803.689 3241.23 804.608 3243.07 805.757 3244.45 807.25 3245.37 809.088 3246.29 810.926 3246.75 813.797 3246.75 817.703L3246.75 836.311 3240.2 836.311 3240.2 817.703C3240.2 814.487 3239.74 812.189 3238.82 810.811 3237.67 809.203 3235.95 808.399 3233.65 808.399 3230.66 808.399 3228.14 809.892 3226.07 812.878L3226.07 836.311 3219.18 836.311 3219.18 803.919 3226.07 803.919ZM3266.05 829.419 3285 829.419 3285 836.311 3253.64 836.311 3253.64 835.622 3256.74 832.176 3267.77 817.703C3270.53 813.568 3272.25 810.466 3272.94 808.399 3273.86 806.561 3274.32 804.608 3274.32 802.541 3274.32 799.784 3273.51 797.487 3271.9 795.649 3270.3 794.041 3268.23 793.237 3265.7 793.237 3263.63 793.237 3261.68 793.811 3259.84 794.96 3257.78 796.108 3256.05 797.716 3254.67 799.784L3254.67 790.825C3258.58 787.838 3262.49 786.345 3266.39 786.345 3270.76 786.345 3274.32 787.723 3277.07 790.48 3279.83 793.467 3281.21 797.142 3281.21 801.507 3281.21 803.575 3280.86 805.757 3280.18 808.054 3279.49 810.352 3278.34 812.878 3276.73 815.635 3274.89 818.622 3271.79 822.642 3267.42 827.696L3266.05 829.419Z" fill="#D33907" fill-rule="evenodd" fill-opacity="1"/><path d="M2709.89 716.489 2703.68 713.036C2700.01 710.734 2697.37 708.433 2695.76 706.131 2693.92 703.829 2693 701.183 2693 698.191 2693 693.587 2694.61 689.905 2697.82 687.143 2700.81 684.381 2704.83 683 2709.89 683 2714.48 683 2718.73 684.381 2722.64 687.143L2722.64 696.119C2718.73 692.206 2714.36 690.25 2709.54 690.25 2707.01 690.25 2704.83 690.941 2702.99 692.322 2701.38 693.472 2700.58 694.968 2700.58 696.81 2700.58 698.651 2701.16 700.262 2702.3 701.643 2703.68 703.254 2705.75 704.865 2708.51 706.476L2714.71 709.929C2721.6 714.072 2725.05 719.365 2725.05 725.81 2725.05 730.413 2723.56 734.096 2720.57 736.858 2717.35 739.62 2713.33 741.001 2708.51 741.001 2702.99 741.001 2697.94 739.274 2693.34 735.822L2693.34 725.465C2697.94 730.989 2702.99 733.751 2708.51 733.751 2711.03 733.751 2713.1 733.06 2714.71 731.679 2716.55 730.298 2717.47 728.572 2717.47 726.5 2717.47 723.048 2714.94 719.711 2709.89 716.489ZM2732.63 683.691 2740.21 683.691 2740.21 707.857C2743.2 704.175 2746.99 702.334 2751.58 702.334 2753.88 702.334 2756.17 702.909 2758.47 704.06 2760.31 705.441 2761.69 707.167 2762.61 709.238 2763.53 711.54 2763.99 714.877 2763.99 719.251L2763.99 740.31 2756.75 740.31 2756.75 717.179C2756.75 714.647 2756.06 712.461 2754.68 710.619 2753.3 709.008 2751.58 708.203 2749.51 708.203 2747.9 708.203 2746.3 708.663 2744.69 709.584 2743.31 710.274 2741.82 711.655 2740.21 713.727L2740.21 740.31 2732.63 740.31 2732.63 683.691ZM2797.76 718.215 2797.76 733.751C2797.76 735.132 2798.1 735.822 2798.79 735.822 2799.71 735.822 2801.09 735.132 2802.93 733.751L2802.93 738.239C2801.32 739.389 2800.06 740.08 2799.14 740.31L2795.69 741.001C2792.7 741.001 2790.86 739.85 2790.18 737.548 2787.19 739.85 2783.86 741.001 2780.18 741.001 2777.88 741.001 2775.82 740.08 2773.98 738.239 2772.14 736.627 2771.22 734.556 2771.22 732.024 2771.22 729.723 2772.14 727.536 2773.98 725.465 2775.59 723.624 2777.88 722.243 2780.87 721.322L2790.52 717.87 2790.52 715.798C2790.52 711.425 2788.22 709.238 2783.63 709.238 2779.72 709.238 2775.82 711.31 2771.91 715.453L2771.91 707.857C2774.9 704.405 2779.04 702.679 2784.32 702.679 2788.22 702.679 2791.44 703.829 2793.97 706.131L2796.03 708.548 2797.41 712 2797.41 718.215ZM2790.52 733.06 2790.52 721.667 2785.35 723.393 2780.18 726.5C2779.04 727.421 2778.46 728.572 2778.46 729.953 2778.46 731.794 2779.04 733.175 2780.18 734.096 2781.1 735.016 2782.25 735.477 2783.63 735.477 2786.15 735.477 2788.45 734.556 2790.52 732.715ZM2817.4 703.024 2817.4 711.655 2818.09 710.965C2821.53 705.21 2824.98 702.334 2828.43 702.334 2831.41 702.334 2834.4 703.715 2837.39 706.476L2833.25 713.036C2830.95 710.734 2828.66 709.584 2826.36 709.584 2824.06 709.584 2821.99 710.734 2820.16 713.036 2818.32 715.338 2817.4 717.984 2817.4 720.977L2817.4 740.31 2810.16 740.31 2810.16 703.024 2817.4 703.024ZM2865.99 683.691 2873.22 683.691 2873.22 740.31 2857.72 740.31C2852.2 740.31 2847.84 738.584 2844.62 735.132 2841.18 731.679 2839.45 727.076 2839.45 721.322 2839.45 715.798 2841.18 711.195 2844.62 707.512 2848.07 704.06 2852.43 702.334 2857.72 702.334 2860.24 702.334 2863 702.794 2865.99 703.715L2865.99 683.691ZM2865.99 734.096 2865.99 710.274C2863.69 709.123 2861.39 708.548 2859.09 708.548 2855.42 708.548 2852.43 709.699 2850.14 712 2848.07 714.532 2847.03 717.87 2847.03 722.012 2847.03 725.925 2847.95 728.917 2849.79 730.989 2850.94 732.139 2852.09 732.945 2853.24 733.405 2854.61 733.866 2856.91 734.096 2860.13 734.096L2865.99 734.096ZM2916.99 683.691 2922.84 683.691 2948 740.31 2939.39 740.31 2931.8 723.738 2907.68 723.738 2900.79 740.31 2892.52 740.31 2916.64 683.345ZM2929.05 716.489 2919.74 695.774 2911.47 716.489 2928.7 716.489Z" fill="#FFFFFF" fill-rule="evenodd" fill-opacity="1"/><path d="M2441 1466 2695 1466 2695 1611 2441 1611Z" fill="#FFFFFF" fill-rule="evenodd" fill-opacity="1"/><path d="M2441.5 1466.5 2695.5 1466.5 2695.5 1611.5 2441.5 1611.5Z" stroke="#0C60B2" stroke-width="3.09393" stroke-linecap="butt" stroke-linejoin="miter" stroke-miterlimit="8" stroke-opacity="1" fill="none" fill-rule="evenodd"/><path d="M2395 1481 2658 1481 2658 1614 2395 1614Z" fill="#FFFFFF" fill-rule="evenodd" fill-opacity="1"/><path d="M2395.5 1481.5 2658.5 1481.5 2658.5 1614.5 2395.5 1614.5Z" stroke="#0C60B2" stroke-width="3.09393" stroke-linecap="butt" stroke-linejoin="miter" stroke-miterlimit="8" stroke-opacity="1" fill="none" fill-rule="evenodd"/><path d="M2441 1636 2695 1636 2695 1782 2441 1782Z" fill="#FFFFFF" fill-rule="evenodd" fill-opacity="1"/><path d="M2441.5 1636.5 2695.5 1636.5 2695.5 1782.5 2441.5 1782.5Z" stroke="#0C60B2" stroke-width="3.09393" stroke-linecap="butt" stroke-linejoin="miter" stroke-miterlimit="8" stroke-opacity="1" fill="none" fill-rule="evenodd"/><path d="M2395 1651 2658 1651 2658 1785 2395 1785Z" fill="#FFFFFF" fill-rule="evenodd" fill-opacity="1"/><path d="M2395.5 1651.5 2658.5 1651.5 2658.5 1785.5 2395.5 1785.5Z" stroke="#0C60B2" stroke-width="3.09393" stroke-linecap="butt" stroke-linejoin="miter" stroke-miterlimit="8" stroke-opacity="1" fill="none" fill-rule="evenodd"/><path d="M2441 894 2695 894 2695 1040 2441 1040Z" fill="#FFFFFF" fill-rule="evenodd" fill-opacity="1"/><path d="M2441.5 894.5 2695.5 894.5 2695.5 1040.5 2441.5 1040.5Z" stroke="#0C60B2" stroke-width="3.09393" stroke-linecap="butt" stroke-linejoin="miter" stroke-miterlimit="8" stroke-opacity="1" fill="none" fill-rule="evenodd"/><path d="M2395 909 2658 909 2658 1042 2395 1042Z" fill="#FFFFFF" fill-rule="evenodd" fill-opacity="1"/><path d="M2395.5 909.5 2658.5 909.5 2658.5 1042.5 2395.5 1042.5Z" stroke="#0C60B2" stroke-width="3.09393" stroke-linecap="butt" stroke-linejoin="miter" stroke-miterlimit="8" stroke-opacity="1" fill="none" fill-rule="evenodd"/><path d="M2441 1064 2695 1064 2695 1210 2441 1210Z" fill="#FFFFFF" fill-rule="evenodd" fill-opacity="1"/><path d="M2441.5 1064.5 2695.5 1064.5 2695.5 1210.5 2441.5 1210.5Z" stroke="#0C60B2" stroke-width="3.09393" stroke-linecap="butt" stroke-linejoin="miter" stroke-miterlimit="8" stroke-opacity="1" fill="none" fill-rule="evenodd"/><path d="M2395 1079 2658 1079 2658 1213 2395 1213Z" fill="#FFFFFF" fill-rule="evenodd" fill-opacity="1"/><path d="M2395.5 1079.5 2658.5 1079.5 2658.5 1213.5 2395.5 1213.5Z" stroke="#0C60B2" stroke-width="3.09393" stroke-linecap="butt" stroke-linejoin="miter" stroke-miterlimit="8" stroke-opacity="1" fill="none" fill-rule="evenodd"/><path d="M2379.18 864.5 2710.17 864.5C2729.05 864.5 2744.5 885.123 2744.5 911.245L2744.5 1767.1C2744.5 1792.53 2729.05 1813.5 2710.17 1813.5L2379.18 1813.5C2359.95 1813.5 2344.5 1792.88 2344.5 1766.75L2344.5 910.902C2344.5 885.467 2359.95 864.5 2378.83 864.5Z" stroke="#0C60B2" stroke-width="3.4375" stroke-linecap="butt" stroke-linejoin="miter" stroke-miterlimit="8" stroke-dasharray="5.15625 5.15625" stroke-opacity="1" fill="none" fill-rule="evenodd"/><path d="M2688.85 1370.49 2682.66 1367.04C2678.76 1364.73 2676.01 1362.43 2674.41 1360.13 2672.8 1357.83 2672 1355.18 2672 1352.19 2672 1347.59 2673.49 1343.9 2676.47 1341.14 2679.68 1338.38 2683.69 1337 2688.5 1337 2693.08 1337 2697.44 1338.38 2701.57 1341.14L2701.57 1350.12C2697.44 1346.21 2693.08 1344.25 2688.5 1344.25 2685.75 1344.25 2683.46 1344.94 2681.63 1346.32 2680.02 1347.47 2679.22 1348.97 2679.22 1350.81 2679.22 1352.65 2679.91 1354.26 2681.28 1355.64 2682.43 1357.26 2684.38 1358.86 2687.13 1360.48L2693.32 1363.93C2700.19 1368.07 2703.63 1373.36 2703.63 1379.81 2703.63 1384.41 2702.14 1388.1 2699.16 1390.86 2696.18 1393.62 2692.28 1395 2687.47 1395 2681.74 1395 2676.7 1393.27 2672.34 1389.82L2672.34 1379.46C2676.7 1384.99 2681.74 1387.75 2687.47 1387.75 2689.76 1387.75 2691.83 1387.06 2693.66 1385.68 2695.26 1384.3 2696.07 1382.57 2696.07 1380.5 2696.07 1377.05 2693.66 1373.71 2688.85 1370.49ZM2711.54 1337.69 2718.76 1337.69 2718.76 1361.86C2721.96 1358.17 2725.75 1356.33 2730.1 1356.33 2732.62 1356.33 2734.91 1356.91 2736.98 1358.06 2738.81 1359.44 2740.18 1361.17 2741.1 1363.24 2742.25 1365.54 2742.82 1368.88 2742.82 1373.25L2742.82 1394.31 2735.26 1394.31 2735.26 1371.18C2735.26 1368.65 2734.57 1366.46 2733.2 1364.62 2732.05 1363.01 2730.33 1362.2 2728.04 1362.2 2726.43 1362.2 2724.94 1362.66 2723.57 1363.58 2722.19 1364.27 2720.59 1365.65 2718.76 1367.73L2718.76 1394.31 2711.88 1394.31 2711.88 1337.69ZM2776.17 1371.87 2776.17 1387.75C2776.17 1389.13 2776.63 1389.82 2777.54 1389.82 2778.46 1389.82 2779.84 1389.13 2781.67 1387.75L2781.67 1392.24 2777.54 1394.31C2776.63 1394.77 2775.6 1395 2774.45 1395 2771.24 1395 2769.41 1393.85 2768.95 1391.55 2765.74 1393.85 2762.3 1395 2758.64 1395 2756.34 1395 2754.28 1394.08 2752.45 1392.24 2750.84 1390.63 2750.04 1388.55 2750.04 1386.02 2750.04 1383.72 2750.84 1381.54 2752.45 1379.46 2754.05 1377.62 2756.34 1376.24 2759.32 1375.32L2768.95 1371.87 2768.95 1369.8C2768.95 1365.42 2766.66 1363.24 2762.07 1363.24 2758.18 1363.24 2754.4 1365.31 2750.73 1369.45L2750.73 1361.51C2753.48 1358.06 2757.49 1356.33 2762.76 1356.33 2766.89 1356.33 2770.09 1357.48 2772.39 1359.79 2773.31 1360.24 2774.11 1361.05 2774.79 1362.2 2775.48 1363.35 2775.83 1364.51 2775.83 1365.65L2776.17 1371.87ZM2769.29 1387.06 2769.29 1376.01 2764.14 1377.74C2761.62 1378.89 2759.78 1379.92 2758.64 1380.85 2757.72 1381.77 2757.26 1382.92 2757.26 1384.3 2757.26 1386.14 2757.72 1387.52 2758.64 1388.44 2759.55 1389.36 2760.81 1389.82 2762.42 1389.82 2764.71 1389.82 2767 1388.9 2769.29 1387.06ZM2796.11 1357.02 2796.11 1365.65 2796.45 1364.96C2799.89 1359.21 2803.33 1356.33 2806.77 1356.33 2809.75 1356.33 2812.72 1357.71 2815.71 1360.48L2811.92 1367.04C2809.4 1364.73 2807.11 1363.58 2805.05 1363.58 2802.53 1363.58 2800.35 1364.73 2798.52 1367.04 2796.91 1369.34 2796.11 1371.98 2796.11 1374.98L2796.11 1394.31 2788.55 1394.31 2788.55 1357.02 2796.11 1357.02ZM2844.24 1337.69 2851.8 1337.69 2851.8 1394.31 2835.65 1394.31C2830.14 1394.31 2825.79 1392.58 2822.58 1389.13 2819.37 1385.68 2817.77 1381.08 2817.77 1375.32 2817.77 1369.8 2819.49 1365.2 2822.92 1361.51 2826.36 1358.06 2830.72 1356.33 2835.99 1356.33 2838.28 1356.33 2840.92 1356.79 2843.9 1357.71L2843.9 1337.69ZM2844.24 1388.1 2844.24 1364.27C2841.95 1363.12 2839.66 1362.55 2837.36 1362.55 2833.7 1362.55 2830.83 1363.7 2828.77 1366 2826.48 1368.53 2825.33 1371.87 2825.33 1376.01 2825.33 1379.92 2826.36 1382.92 2828.43 1384.99 2829.34 1386.14 2830.49 1386.95 2831.86 1387.4 2833.01 1387.86 2835.3 1388.1 2838.74 1388.1L2844.24 1388.1ZM2904.4 1394.31 2885.5 1394.31 2885.5 1337.69 2900.28 1337.69C2904.86 1337.69 2908.53 1338.38 2911.28 1339.76 2913.8 1340.91 2915.75 1342.64 2917.12 1344.94 2918.5 1347.24 2919.19 1349.77 2919.19 1352.54 2919.19 1358.06 2916.32 1361.97 2910.59 1364.27 2914.72 1365.2 2918.04 1366.92 2920.56 1369.45 2922.86 1372.21 2924 1375.32 2924 1378.77 2924 1381.77 2923.31 1384.41 2921.94 1386.71 2920.33 1389.02 2918.04 1390.86 2915.06 1392.24 2912.31 1393.62 2908.87 1394.31 2904.75 1394.31ZM2900.62 1344.94 2893.75 1344.94 2893.75 1362.2 2898.9 1362.2C2903.26 1362.2 2906.35 1361.28 2908.19 1359.44 2910.02 1357.83 2910.94 1355.76 2910.94 1353.23 2910.94 1347.7 2907.5 1344.94 2900.62 1344.94ZM2901.31 1369.11 2893.75 1369.11 2893.75 1387.06 2901.65 1387.06C2906.01 1387.06 2908.99 1386.71 2910.59 1386.02 2912.2 1385.33 2913.34 1384.18 2914.03 1382.57 2915.18 1381.42 2915.75 1379.92 2915.75 1378.08 2915.75 1376.47 2915.29 1374.98 2914.37 1373.6 2913.23 1371.98 2911.74 1370.83 2909.9 1370.14 2908.07 1369.45 2905.2 1369.11 2901.31 1369.11Z" fill="#FFFFFF" fill-rule="evenodd" fill-opacity="1"/><path d="M2391.37 824.939 2391.37 832.176C2386.33 835.162 2380.37 836.656 2373.49 836.656 2367.98 836.656 2363.4 835.507 2359.73 833.21 2355.83 830.912 2352.73 827.811 2350.44 823.906 2348.15 820 2347 815.865 2347 811.5 2347 804.149 2349.52 798.061 2354.57 793.237 2359.84 788.413 2366.15 786 2373.49 786 2378.76 786 2384.49 787.379 2390.69 790.135L2390.69 797.716C2384.95 794.27 2379.45 792.548 2374.17 792.548 2368.44 792.548 2363.74 794.385 2360.07 798.061 2356.17 801.507 2354.22 805.987 2354.22 811.5 2354.22 816.784 2356.06 821.149 2359.73 824.595 2363.4 828.27 2368.1 830.108 2373.83 830.108 2379.79 830.108 2385.64 828.27 2391.37 824.595ZM2414.77 803.575C2419.81 803.575 2423.94 805.183 2427.15 808.399 2430.36 811.615 2431.96 815.635 2431.96 820.46 2431.96 825.054 2430.36 828.96 2427.15 832.176 2423.71 835.392 2419.47 837 2414.42 837 2409.84 837 2405.82 835.392 2402.38 832.176 2399.17 828.96 2397.57 825.054 2397.57 820.46 2397.57 815.635 2399.17 811.615 2402.38 808.399 2405.59 805.183 2409.72 803.575 2414.77 803.575ZM2414.77 809.433C2411.56 809.433 2408.92 810.466 2406.85 812.534 2404.79 814.602 2403.76 817.128 2403.76 820.115 2403.76 823.331 2404.9 825.973 2407.2 828.041 2409.03 829.878 2411.56 830.797 2414.77 830.797 2417.97 830.797 2420.5 829.764 2422.33 827.696 2424.63 825.858 2425.77 823.331 2425.77 820.115 2425.77 817.128 2424.63 814.602 2422.33 812.534 2420.27 810.466 2417.63 809.433 2414.42 809.433ZM2439.19 787.034 2445.72 787.034 2445.72 836.311 2439.19 836.311 2439.19 787.034ZM2455.01 787.034 2461.89 787.034 2461.89 836.311 2455.01 836.311 2455.01 787.034ZM2498.7 820.46 2475.65 820.46C2475.88 823.676 2477.03 826.203 2479.09 828.041 2480.92 829.878 2483.33 830.797 2486.31 830.797 2490.67 830.797 2494.57 829.419 2498.01 826.662L2498.01 833.21C2496.18 834.358 2494.22 835.277 2492.16 835.966 2490.33 836.426 2488.03 836.656 2485.28 836.656 2481.84 836.656 2478.98 835.966 2476.68 834.588 2474.39 832.98 2472.67 831.027 2471.52 828.73 2470.15 826.203 2469.46 823.216 2469.46 819.77 2469.46 814.946 2470.83 810.926 2473.59 807.71 2476.34 804.723 2480.01 803.23 2484.59 803.23 2488.72 803.23 2492.16 804.723 2494.91 807.71 2497.21 810.696 2498.35 814.716 2498.35 819.77L2498.35 820.46ZM2475.99 817.014 2492.16 817.014C2492.16 814.257 2491.47 812.189 2490.1 810.811 2488.72 809.433 2486.89 808.743 2484.59 808.743 2482.3 808.743 2480.35 809.433 2478.75 810.811 2477.37 812.189 2476.45 814.142 2475.99 816.669ZM2529.66 828.73 2529.66 834.932C2526.67 836.311 2523.58 837 2520.37 837 2515.32 837 2511.31 835.392 2508.33 832.176 2505.35 829.189 2503.86 825.169 2503.86 820.115 2503.86 815.061 2505.23 810.926 2507.98 807.71 2510.97 804.723 2514.86 803.23 2519.68 803.23L2524.15 803.575 2529.31 805.297 2529.31 812.189C2525.87 810.122 2522.78 809.088 2520.02 809.088 2517.27 809.088 2514.98 810.122 2513.14 812.189 2511.31 814.257 2510.39 816.899 2510.39 820.115 2510.39 823.331 2511.31 825.973 2513.14 828.041 2515.21 829.878 2517.96 830.797 2521.4 830.797 2523.69 830.797 2526.56 830.108 2530 828.73ZM2532.75 808.743 2544.79 797.027 2544.79 803.919 2555.11 803.919 2555.11 809.433 2544.79 809.433 2544.79 825.629C2544.79 829.304 2546.28 831.142 2549.26 831.142 2551.56 831.142 2553.96 830.338 2556.49 828.73L2556.49 834.588C2554.19 836.196 2551.56 837 2548.57 837 2545.59 837 2543.07 836.081 2541.01 834.243L2539.63 832.521 2538.6 830.108 2538.25 823.906 2538.25 809.433 2532.75 809.433 2532.75 808.743ZM2564.74 790.135C2565.66 790.135 2566.46 790.48 2567.15 791.169 2568.07 791.858 2568.53 792.777 2568.53 793.926 2568.53 794.845 2568.07 795.763 2567.15 796.683 2566.46 797.372 2565.66 797.716 2564.74 797.716 2563.6 797.716 2562.68 797.372 2561.99 796.683 2561.3 795.763 2560.96 794.845 2560.96 793.926 2560.96 793.007 2561.3 792.088 2561.99 791.169 2562.68 790.48 2563.6 790.135 2564.74 790.135ZM2561.3 803.919 2567.84 803.919 2567.84 836.311 2561.3 836.311 2561.3 803.919ZM2592.6 803.575C2597.42 803.575 2601.55 805.183 2604.99 808.399 2608.2 811.615 2609.8 815.635 2609.8 820.46 2609.8 825.054 2608.2 828.96 2604.99 832.176 2601.55 835.392 2597.31 837 2592.26 837 2587.44 837 2583.43 835.392 2580.22 832.176 2576.78 828.96 2575.06 825.054 2575.06 820.46 2575.06 815.635 2576.78 811.615 2580.22 808.399 2583.43 805.183 2587.56 803.575 2592.6 803.575ZM2592.26 809.433C2589.05 809.433 2586.53 810.466 2584.69 812.534 2582.63 814.602 2581.6 817.128 2581.6 820.115 2581.6 823.331 2582.74 825.973 2585.04 828.041 2586.87 829.878 2589.39 830.797 2592.6 830.797 2595.59 830.797 2598.11 829.764 2600.17 827.696 2602.24 825.858 2603.27 823.331 2603.27 820.115 2603.27 817.128 2602.12 814.602 2599.83 812.534 2597.99 810.466 2595.47 809.433 2592.26 809.433ZM2623.22 803.919 2623.22 808.054C2626.2 804.838 2629.52 803.23 2633.19 803.23 2635.03 803.23 2636.86 803.689 2638.7 804.608 2640.53 805.757 2641.79 807.25 2642.48 809.088 2643.4 810.926 2643.86 813.797 2643.86 817.703L2643.86 836.311 2637.67 836.311 2637.67 817.703C2637.67 814.487 2637.09 812.189 2635.95 810.811 2635.03 809.203 2633.42 808.399 2631.13 808.399 2627.92 808.399 2625.28 809.892 2623.22 812.878L2623.22 836.311 2616.68 836.311 2616.68 803.919 2623.56 803.919ZM2663.12 787.034 2670 787.034 2670 836.311 2663.12 836.311 2663.12 787.034Z" fill="#0C60B2" fill-rule="evenodd" fill-opacity="1"/><path d="M1077.34 1330.65 1077.34 1280.69 1089.69 1280.69C1094.49 1280.69 1098.38 1281.85 1101.35 1284.16 1104.32 1286.94 1105.81 1290.41 1105.81 1294.57 1105.81 1297.35 1105.12 1299.89 1103.75 1302.2 1102.15 1304.29 1100.09 1305.79 1097.58 1306.71 1099.18 1307.87 1100.67 1309.26 1102.04 1310.88 1103.64 1312.73 1105.81 1315.97 1108.55 1320.59L1112.67 1326.84 1115.07 1330.31 1107.18 1330.31 1105.12 1326.84 1103.75 1326.84 1102.38 1324.41 1100.32 1320.94 1097.92 1317.12C1096.55 1315.04 1095.18 1313.42 1093.81 1312.27L1090.38 1309.49C1089.69 1309.03 1088.2 1308.8 1085.92 1308.8L1083.86 1308.8 1083.86 1330.31 1077 1330.31ZM1086.26 1286.59 1084.2 1286.59 1084.2 1302.55 1086.95 1302.55C1090.61 1302.55 1093.01 1302.2 1094.15 1301.51 1095.52 1300.82 1096.66 1299.89 1097.58 1298.73 1098.26 1297.58 1098.61 1296.19 1098.61 1294.57 1098.61 1292.95 1098.15 1291.45 1097.24 1290.06 1096.32 1288.91 1095.18 1288.09 1093.81 1287.63 1092.21 1286.94 1089.69 1286.59 1086.26 1286.59ZM1147.31 1314.69 1124.67 1314.69C1124.67 1317.7 1125.7 1320.13 1127.76 1321.98 1129.59 1323.83 1131.99 1324.76 1134.96 1324.76 1139.31 1324.76 1143.2 1323.48 1146.63 1320.94L1146.63 1327.18C1144.8 1328.57 1142.85 1329.5 1140.79 1329.96 1138.97 1330.65 1136.68 1331 1133.94 1331 1130.51 1331 1127.65 1330.19 1125.36 1328.57 1123.07 1327.18 1121.36 1325.22 1120.22 1322.67 1118.84 1320.13 1118.16 1317.24 1118.16 1314 1118.16 1308.91 1119.53 1304.87 1122.27 1301.86 1125.02 1298.62 1128.68 1297 1133.25 1297 1137.59 1297 1141.02 1298.5 1143.54 1301.51 1146.05 1304.52 1147.31 1308.56 1147.31 1313.65L1147.31 1314.69ZM1124.67 1310.88 1141.48 1310.88C1141.25 1308.1 1140.45 1306.02 1139.08 1304.63 1137.71 1303.25 1135.88 1302.55 1133.59 1302.55 1131.31 1302.55 1129.36 1303.25 1127.76 1304.63 1126.39 1306.02 1125.47 1308.1 1125.02 1310.88ZM1174.41 1310.88 1174.41 1324.76C1174.41 1325.68 1174.86 1326.14 1175.78 1326.14 1176.47 1326.14 1177.61 1325.56 1179.21 1324.41L1179.21 1328.57 1175.78 1330.31 1173.04 1331C1170.29 1331 1168.69 1329.84 1168.23 1327.53 1165.49 1329.84 1162.63 1331 1159.66 1331 1157.37 1331 1155.43 1330.19 1153.83 1328.57 1152.46 1327.18 1151.77 1325.33 1151.77 1323.02 1151.77 1320.71 1152.46 1318.86 1153.83 1317.47 1155.2 1315.85 1157.26 1314.58 1160 1313.65L1168.23 1310.88 1168.23 1309.14C1168.23 1304.98 1166.29 1302.9 1162.4 1302.9 1158.97 1302.9 1155.54 1304.75 1152.11 1308.45L1152.11 1301.51C1154.63 1298.5 1158.29 1297 1163.09 1297 1166.52 1297 1169.26 1297.93 1171.32 1299.78L1173.38 1302.2 1174.41 1304.98 1174.41 1310.88ZM1168.23 1324.06 1168.23 1314.35 1164.12 1315.73C1161.83 1316.66 1160.23 1317.58 1159.32 1318.51 1158.4 1319.44 1157.94 1320.59 1157.94 1321.98 1157.94 1323.13 1158.4 1324.29 1159.32 1325.45 1160.23 1326.14 1161.37 1326.49 1162.75 1326.49 1164.8 1326.49 1166.63 1325.68 1168.23 1324.06ZM1206.65 1280.69 1213.16 1280.69 1213.16 1330.31 1199.45 1330.31C1194.64 1330.31 1190.76 1328.8 1187.78 1325.8 1185.04 1322.79 1183.67 1318.74 1183.67 1313.65 1183.67 1308.8 1185.15 1304.75 1188.13 1301.51 1191.1 1298.5 1194.87 1297 1199.45 1297 1201.73 1297 1204.13 1297.46 1206.65 1298.39L1206.65 1280.69ZM1206.65 1324.76 1206.65 1303.94C1204.59 1303.01 1202.53 1302.55 1200.47 1302.55 1197.27 1302.55 1194.76 1303.71 1192.93 1306.02 1191.1 1307.87 1190.18 1310.65 1190.18 1314.35 1190.18 1317.58 1190.98 1320.13 1192.59 1321.98 1193.5 1323.13 1194.64 1323.95 1196.02 1324.41L1201.85 1324.76 1206.65 1324.76ZM1220.37 1327.88 1220.37 1320.94C1221.97 1322.33 1223.8 1323.48 1225.85 1324.41 1227.68 1325.1 1229.17 1325.45 1230.31 1325.45 1231.69 1325.45 1232.83 1325.1 1233.74 1324.41 1234.89 1323.71 1235.46 1322.91 1235.46 1321.98 1235.46 1321.05 1235.12 1320.25 1234.43 1319.55L1230.31 1316.78C1226.2 1314.46 1223.57 1312.5 1222.42 1310.88 1221.05 1309.26 1220.37 1307.52 1220.37 1305.67 1220.37 1303.13 1221.28 1301.05 1223.11 1299.43 1225.17 1297.81 1227.68 1297 1230.66 1297 1233.86 1297 1237.17 1297.93 1240.6 1299.78L1240.6 1306.02C1236.72 1303.71 1233.63 1302.55 1231.34 1302.55 1229.97 1302.55 1228.83 1302.9 1227.91 1303.59 1227.23 1304.05 1226.88 1304.75 1226.88 1305.67 1226.88 1306.37 1227.23 1307.06 1227.91 1307.76L1231.69 1310.18 1234.09 1311.57C1239.35 1314.58 1241.97 1318.05 1241.97 1321.98 1241.97 1324.52 1240.95 1326.72 1238.89 1328.57 1236.83 1330.19 1234.2 1331 1231 1331 1229.17 1331 1227.46 1330.77 1225.85 1330.31L1220.02 1327.88ZM1245.06 1331 1259.12 1280 1264.27 1280 1250.21 1331 1245.06 1331ZM1333.21 1280.69 1340.07 1280.69 1319.83 1330.65 1318.46 1330.65 1302.68 1290.06 1286.22 1330.65 1284.85 1330.65 1264.95 1280.69 1271.81 1280.69 1285.53 1315.04 1299.25 1280.69 1306.11 1280.69 1319.83 1315.04 1333.21 1280.69ZM1351.73 1297.69 1351.73 1305.33 1351.73 1304.63C1354.93 1299.54 1358.13 1297 1361.33 1297 1363.62 1297 1366.13 1298.16 1368.88 1300.47L1365.45 1306.37C1363.16 1304.05 1361.1 1302.9 1359.28 1302.9 1356.99 1302.9 1355.16 1304.05 1353.79 1306.37 1352.42 1308.22 1351.73 1310.53 1351.73 1313.31L1351.73 1330.65 1344.87 1330.65 1344.87 1297.69 1351.73 1297.69ZM1376.42 1283.82C1377.57 1283.82 1378.48 1284.16 1379.17 1284.86 1380.08 1285.78 1380.54 1286.71 1380.54 1287.63 1380.54 1288.79 1380.08 1289.71 1379.17 1290.41 1378.48 1291.1 1377.57 1291.45 1376.42 1291.45 1375.51 1291.45 1374.71 1291.1 1374.02 1290.41 1373.34 1289.71 1372.99 1288.79 1372.99 1287.63 1372.99 1286.71 1373.34 1285.9 1374.02 1285.2 1374.71 1284.28 1375.51 1283.82 1376.42 1283.82ZM1373.34 1297.69 1379.85 1297.69 1379.85 1330.31 1373.34 1330.31 1373.34 1297.69ZM1384.66 1302.9 1396.66 1290.76 1396.66 1297.69 1406.95 1297.69 1406.95 1303.59 1396.66 1303.59 1396.66 1319.55C1396.66 1323.25 1398.15 1325.1 1401.12 1325.1 1403.41 1325.1 1405.81 1324.29 1408.32 1322.67L1408.32 1328.92C1406.03 1330.31 1403.41 1331 1400.43 1331 1397.46 1331 1394.95 1330.07 1392.89 1328.22L1391.52 1326.49C1391.06 1326.03 1390.72 1325.22 1390.49 1324.06L1390.14 1318.16 1390.14 1303.59 1384.66 1303.59 1384.66 1302.9ZM1440.56 1314.69 1417.93 1314.69C1417.93 1317.7 1418.95 1320.13 1421.01 1321.98 1422.84 1323.83 1425.36 1324.76 1428.56 1324.76 1432.67 1324.76 1436.56 1323.48 1440.22 1320.94L1440.22 1327.18C1438.16 1328.57 1436.22 1329.5 1434.39 1329.96 1432.33 1330.65 1430.04 1331 1427.53 1331 1423.87 1331 1420.9 1330.19 1418.61 1328.57 1416.32 1327.18 1414.61 1325.22 1413.47 1322.67 1412.09 1320.13 1411.41 1317.24 1411.41 1314 1411.41 1308.91 1412.78 1304.87 1415.52 1301.86 1418.5 1298.62 1422.15 1297 1426.5 1297 1430.85 1297 1434.28 1298.5 1436.79 1301.51 1439.3 1304.52 1440.56 1308.56 1440.56 1313.65L1440.56 1314.69ZM1417.93 1310.88 1434.39 1310.88C1434.39 1308.1 1433.59 1306.02 1431.99 1304.63 1430.62 1303.25 1428.79 1302.55 1426.5 1302.55 1424.21 1302.55 1422.38 1303.25 1421.01 1304.63 1419.41 1306.02 1418.38 1308.1 1417.93 1310.88ZM1446.05 1327.88 1446.05 1320.94 1451.54 1324.41C1453.37 1325.1 1454.97 1325.45 1456.34 1325.45 1457.71 1325.45 1458.85 1325.1 1459.77 1324.41 1460.68 1323.71 1461.14 1322.91 1461.14 1321.98 1461.14 1321.05 1460.8 1320.25 1460.11 1319.55L1456.34 1316.78C1452.22 1314.46 1449.48 1312.5 1448.11 1310.88 1446.74 1309.26 1446.05 1307.52 1446.05 1305.67 1446.05 1303.13 1447.08 1301.05 1449.14 1299.43 1450.96 1297.81 1453.48 1297 1456.68 1297 1459.66 1297 1462.86 1297.93 1466.29 1299.78L1466.29 1306.02C1462.4 1303.71 1459.31 1302.55 1457.03 1302.55 1455.65 1302.55 1454.62 1302.9 1453.94 1303.59 1453.25 1304.05 1452.91 1304.75 1452.91 1305.67 1452.91 1306.37 1453.25 1307.06 1453.94 1307.76L1457.37 1310.18 1459.77 1311.57C1465.26 1314.58 1468 1318.05 1468 1321.98 1468 1324.52 1466.86 1326.72 1464.57 1328.57 1462.51 1330.19 1459.88 1331 1456.68 1331 1454.85 1331 1453.14 1330.77 1451.54 1330.31L1446.05 1327.88Z" fill="#D33907" fill-rule="evenodd" fill-opacity="1"/><path d="M1077 1212.65 1077 1162.69 1089.36 1162.69C1094.16 1162.69 1098.05 1163.97 1101.03 1166.51 1104.01 1168.82 1105.49 1172.29 1105.49 1176.92 1105.49 1179.69 1104.81 1182.01 1103.43 1183.86 1101.83 1186.17 1099.77 1187.91 1097.25 1189.06 1098.86 1189.99 1100.34 1191.38 1101.72 1193.22 1103.32 1195.07 1105.49 1198.2 1108.24 1202.59L1112.36 1208.84 1114.76 1212.31 1106.87 1212.31 1104.81 1209.18 1104.12 1208.49 1102.75 1206.76 1100.69 1203.29 1098.28 1199.12C1096.91 1197.04 1095.54 1195.42 1094.16 1194.27 1093.02 1193.11 1091.88 1192.3 1090.73 1191.84 1090.04 1191.14 1088.56 1190.8 1086.27 1190.8L1084.21 1190.8 1084.21 1212.65 1077.34 1212.65ZM1085.93 1168.94 1083.87 1168.94 1083.87 1184.55 1086.61 1184.55C1090.27 1184.55 1092.68 1184.2 1093.82 1183.51 1095.19 1183.05 1096.34 1182.12 1097.25 1180.73 1097.94 1179.58 1098.28 1178.19 1098.28 1176.57 1098.28 1174.95 1097.83 1173.56 1096.91 1172.41 1095.99 1171.02 1094.85 1170.09 1093.48 1169.63 1091.88 1169.17 1089.36 1168.94 1085.93 1168.94ZM1147.03 1196.69 1124.37 1196.69C1124.37 1199.93 1125.4 1202.48 1127.46 1204.33 1129.29 1206.18 1131.7 1207.1 1134.67 1207.1 1139.02 1207.1 1142.91 1205.71 1146.34 1202.94L1146.34 1209.18C1144.51 1210.57 1142.57 1211.61 1140.51 1212.31 1138.68 1212.77 1136.39 1213 1133.64 1213 1130.21 1213 1127.35 1212.31 1125.06 1210.92 1122.77 1209.3 1121.05 1207.22 1119.91 1204.67 1118.54 1202.36 1117.85 1199.47 1117.85 1196 1117.85 1190.91 1119.22 1186.87 1121.97 1183.86 1124.72 1180.62 1128.38 1179 1132.96 1179 1137.3 1179 1140.74 1180.62 1143.25 1183.86 1145.77 1186.87 1147.03 1190.91 1147.03 1196L1147.03 1196.69ZM1124.37 1192.88 1141.19 1192.88C1140.97 1190.33 1140.16 1188.37 1138.79 1186.98 1137.42 1185.59 1135.59 1184.9 1133.3 1184.9 1131.01 1184.9 1129.06 1185.59 1127.46 1186.98 1126.09 1188.37 1125.17 1190.33 1124.72 1192.88ZM1174.15 1192.88 1174.15 1206.76C1174.15 1207.91 1174.61 1208.49 1175.52 1208.49 1176.21 1208.49 1177.35 1207.91 1178.96 1206.76L1178.96 1210.57 1175.52 1212.65 1172.78 1213C1170.03 1213 1168.43 1211.85 1167.97 1209.53 1165.22 1211.85 1162.36 1213 1159.39 1213 1157.1 1213 1155.15 1212.31 1153.55 1210.92 1152.18 1209.3 1151.49 1207.33 1151.49 1205.02 1151.49 1202.94 1152.18 1201.09 1153.55 1199.47 1154.93 1197.85 1156.98 1196.69 1159.73 1196L1167.97 1192.53 1167.97 1191.14C1167.97 1187.21 1166.02 1185.24 1162.13 1185.24 1158.7 1185.24 1155.27 1187.09 1151.84 1190.8L1151.84 1183.86C1154.35 1180.62 1158.02 1179 1162.82 1179 1166.25 1179 1169 1179.93 1171.06 1181.78L1173.12 1184.2 1174.15 1187.33 1174.15 1192.88ZM1167.97 1206.06 1167.97 1196.35 1163.85 1198.08 1159.05 1200.51C1158.13 1201.44 1157.67 1202.59 1157.67 1203.98 1157.67 1205.37 1158.13 1206.52 1159.05 1207.45 1159.96 1208.14 1161.1 1208.49 1162.48 1208.49 1164.54 1208.49 1166.37 1207.68 1167.97 1206.06ZM1206.42 1162.69 1212.94 1162.69 1212.94 1212.65 1199.21 1212.65C1194.4 1212.65 1190.51 1211.03 1187.54 1207.8 1184.79 1204.79 1183.42 1200.74 1183.42 1195.65 1183.42 1191.03 1184.91 1187.09 1187.88 1183.86 1190.86 1180.62 1194.63 1179 1199.21 1179 1201.5 1179 1203.9 1179.46 1206.42 1180.39L1206.42 1163.04ZM1206.42 1207.1 1206.42 1186.29C1204.36 1185.13 1202.3 1184.55 1200.24 1184.55 1197.04 1184.55 1194.52 1185.71 1192.69 1188.02 1190.86 1190.1 1189.94 1192.88 1189.94 1196.35 1189.94 1199.82 1190.74 1202.48 1192.34 1204.33 1193.26 1205.25 1194.4 1205.95 1195.78 1206.41 1196.69 1206.87 1198.64 1207.1 1201.61 1207.1L1206.42 1207.1ZM1220.15 1210.22 1220.15 1203.29 1225.64 1206.41C1227.47 1207.1 1228.96 1207.45 1230.1 1207.45 1231.48 1207.45 1232.62 1207.1 1233.54 1206.41 1234.68 1205.71 1235.25 1204.91 1235.25 1203.98 1235.25 1203.05 1234.91 1202.36 1234.22 1201.9L1230.1 1199.12C1225.99 1196.81 1223.35 1194.84 1222.21 1193.22 1220.84 1191.38 1220.15 1189.52 1220.15 1187.67 1220.15 1185.36 1221.06 1183.28 1222.9 1181.43 1224.96 1179.81 1227.47 1179 1230.45 1179 1233.65 1179 1236.97 1179.93 1240.4 1181.78L1240.4 1188.37C1236.51 1186.05 1233.42 1184.9 1231.13 1184.9 1229.76 1184.9 1228.62 1185.13 1227.7 1185.59 1227.02 1186.05 1226.67 1186.75 1226.67 1187.67 1226.67 1188.37 1227.02 1189.06 1227.7 1189.76L1231.48 1192.18 1233.88 1193.57C1239.14 1196.81 1241.78 1200.28 1241.78 1203.98 1241.78 1206.52 1240.75 1208.72 1238.69 1210.57 1236.63 1212.19 1234 1213 1230.79 1213L1225.64 1212.65 1219.81 1210.22ZM1244.87 1213 1258.94 1162 1264.09 1162 1250.02 1213 1244.87 1213ZM1332.75 1162.69 1339.61 1162.69 1320.05 1212.65 1318.67 1212.65 1302.54 1172.41 1286.06 1212.65 1284.69 1212.65 1264.78 1162.69 1271.64 1162.69 1285.37 1197.39 1299.1 1162.69 1305.97 1162.69 1319.7 1197.39 1332.75 1162.69ZM1351.63 1179.69 1351.63 1187.33 1351.63 1186.63C1354.83 1181.54 1358.04 1179 1361.24 1179 1363.53 1179 1366.05 1180.27 1368.79 1182.82L1365.36 1188.71C1363.07 1186.4 1361.01 1185.24 1359.18 1185.24 1356.89 1185.24 1355.06 1186.29 1353.69 1188.37 1352.31 1190.45 1351.63 1192.76 1351.63 1195.31L1351.63 1212.65 1344.76 1212.65 1344.76 1179.69 1351.63 1179.69ZM1376.34 1166.16C1377.49 1166.16 1378.4 1166.51 1379.09 1167.2 1380.01 1167.9 1380.46 1168.82 1380.46 1169.98 1380.46 1170.91 1380.01 1171.71 1379.09 1172.41 1378.4 1173.33 1377.49 1173.8 1376.34 1173.8 1375.43 1173.8 1374.63 1173.33 1373.94 1172.41 1373.25 1171.71 1372.91 1170.91 1372.91 1169.98 1372.91 1168.82 1373.25 1167.9 1373.94 1167.2 1374.63 1166.51 1375.43 1166.16 1376.34 1166.16ZM1373.25 1180.04 1379.78 1180.04 1379.78 1212.65 1373.25 1212.65 1373.25 1179.69ZM1384.58 1184.9 1396.6 1173.1 1396.6 1180.04 1406.9 1180.04 1406.9 1185.59 1396.6 1185.59 1396.6 1201.55C1396.6 1205.48 1398.08 1207.45 1401.06 1207.45 1403.35 1207.45 1405.75 1206.64 1408.27 1205.02L1408.27 1210.92C1405.98 1212.31 1403.35 1213 1400.37 1213 1397.4 1213 1394.88 1212.19 1392.82 1210.57L1391.45 1208.84 1390.42 1206.06 1390.07 1200.16 1390.07 1185.59 1384.58 1185.59 1384.58 1184.9ZM1440.54 1196.69 1417.88 1196.69C1417.88 1199.93 1418.91 1202.48 1420.97 1204.33 1422.8 1206.18 1425.32 1207.1 1428.52 1207.1 1432.64 1207.1 1436.53 1205.71 1440.19 1202.94L1440.19 1209.18C1438.13 1210.57 1436.07 1211.61 1434.02 1212.31 1432.19 1212.77 1429.9 1213 1427.15 1213 1423.72 1213 1420.86 1212.31 1418.57 1210.92 1416.28 1209.3 1414.56 1207.22 1413.42 1204.67 1412.05 1202.36 1411.36 1199.47 1411.36 1196 1411.36 1190.91 1412.73 1186.87 1415.48 1183.86 1418.45 1180.62 1422.11 1179 1426.46 1179 1430.81 1179 1434.25 1180.62 1436.76 1183.86 1439.28 1186.87 1440.54 1190.91 1440.54 1196L1440.54 1196.69ZM1417.88 1192.88 1434.36 1192.88C1434.36 1190.33 1433.56 1188.37 1431.96 1186.98 1430.58 1185.59 1428.75 1184.9 1426.46 1184.9 1424.17 1184.9 1422.34 1185.59 1420.97 1186.98 1419.37 1188.37 1418.34 1190.33 1417.88 1192.88ZM1446.03 1210.22 1446.03 1203.29 1451.52 1206.41C1453.35 1207.1 1454.96 1207.45 1456.33 1207.45 1457.7 1207.45 1458.84 1207.1 1459.76 1206.41 1460.68 1205.71 1461.13 1204.91 1461.13 1203.98 1461.13 1203.05 1460.79 1202.36 1460.1 1201.9 1459.65 1201.2 1458.39 1200.28 1456.33 1199.12 1452.21 1196.81 1449.46 1194.84 1448.09 1193.22 1446.72 1191.38 1446.03 1189.52 1446.03 1187.67 1446.03 1185.36 1447.06 1183.28 1449.12 1181.43 1450.95 1179.81 1453.47 1179 1456.67 1179 1459.65 1179 1462.85 1179.93 1466.28 1181.78L1466.28 1188.37C1462.39 1186.05 1459.31 1184.9 1457.02 1184.9 1455.64 1184.9 1454.61 1185.13 1453.93 1185.59 1453.24 1186.05 1452.9 1186.75 1452.9 1187.67 1452.9 1188.37 1453.24 1189.06 1453.93 1189.76L1457.36 1192.18 1459.76 1193.57C1465.25 1196.81 1468 1200.28 1468 1203.98 1468 1206.52 1466.86 1208.72 1464.57 1210.57 1462.51 1212.19 1459.87 1213 1456.67 1213L1451.52 1212.65 1446.03 1210.22Z" fill="#0C60B2" fill-rule="evenodd" fill-opacity="1"/><path d="M1575.5 636.5 1575.5 1839.5" stroke="#4F4C4B" stroke-width="6.875" stroke-linecap="butt" stroke-linejoin="miter" stroke-miterlimit="8" stroke-dasharray="20.625 20.625" stroke-opacity="1" fill="none" fill-rule="evenodd"/><path d="M1489 1195 1591 1195" stroke="#0C60B2" stroke-width="10.3125" stroke-linecap="butt" stroke-linejoin="miter" stroke-miterlimit="8" stroke-opacity="1" fill="none" fill-rule="evenodd"/><path d="M1591.35 1210 1630 1195.33 1591 1181Z" stroke="#0C60B2" stroke-width="10.3125" stroke-linecap="butt" stroke-linejoin="miter" stroke-miterlimit="8" stroke-opacity="1" fill="#0C60B2" fill-rule="evenodd" fill-opacity="1"/><path d="M1481 1314 1591 1314" stroke="#D33907" stroke-width="10.3125" stroke-linecap="butt" stroke-linejoin="miter" stroke-miterlimit="8" stroke-opacity="1" fill="none" fill-rule="evenodd"/><path d="M1591.35 1329 1630 1314.5 1591 1300Z" stroke="#D33907" stroke-width="10.3125" stroke-linecap="butt" stroke-linejoin="miter" stroke-miterlimit="8" stroke-opacity="1" fill="#D33907" fill-rule="evenodd" fill-opacity="1"/><path d="M2166.5 1137.5 2256.5 1137.5" stroke="#D33907" stroke-width="6.875" stroke-linecap="butt" stroke-linejoin="miter" stroke-miterlimit="8" stroke-opacity="1" fill="none" fill-rule="evenodd"/><path d="M2166.34 1125.5 2133.5 1137.5 2166.34 1149.5ZM2256.66 1149.5 2289.5 1137.5 2256.66 1125.5Z" stroke="#D33907" stroke-width="6.875" stroke-linecap="butt" stroke-linejoin="miter" stroke-miterlimit="8" stroke-opacity="1" fill="#D33907" fill-rule="evenodd" fill-opacity="1"/><path d="M2166.5 1175.5 2256.5 1175.5" stroke="#0C60B2" stroke-width="6.875" stroke-linecap="butt" stroke-linejoin="miter" stroke-miterlimit="8" stroke-opacity="1" fill="none" fill-rule="evenodd"/><path d="M2166.34 1162.5 2133.5 1175 2166.34 1187.5ZM2256.66 1187.5 2289.5 1175 2256.66 1162.5Z" stroke="#0C60B2" stroke-width="6.875" stroke-linecap="butt" stroke-linejoin="miter" stroke-miterlimit="8" stroke-opacity="1" fill="#0C60B2" fill-rule="evenodd" fill-opacity="1"/><path d="M2159.5 1339.5 2249.5 1339.5" stroke="#0C60B2" stroke-width="6.875" stroke-linecap="butt" stroke-linejoin="miter" stroke-miterlimit="8" stroke-opacity="1" fill="none" fill-rule="evenodd"/><path d="M2159.34 1326.5 2126.5 1339 2159.34 1351.5ZM2249.66 1351.5 2282.5 1339 2249.66 1326.5Z" stroke="#0C60B2" stroke-width="6.875" stroke-linecap="butt" stroke-linejoin="miter" stroke-miterlimit="8" stroke-opacity="1" fill="#0C60B2" fill-rule="evenodd" fill-opacity="1"/><path d="M1159.29 872.69 1164.09 872.69 1186.07 921.655 1179.2 921.655 1172.34 907.173 1151.73 907.173 1144.87 922 1138 922 1158.6 872.69ZM1169.59 901.311 1161.69 883.035 1154.14 900.966 1169.59 900.966ZM1190.19 938.552 1190.19 889.931 1201.52 889.931C1207.24 889.931 1211.82 891.425 1215.25 894.414 1218.23 897.172 1219.72 901.196 1219.72 906.483 1219.72 911.081 1218.23 914.989 1215.25 918.207 1212.28 921.425 1208.5 923.035 1203.92 923.035 1201.63 923.035 1199.35 922.575 1197.06 921.655L1197.06 938.897 1190.19 938.897ZM1201.52 895.448 1197.06 895.448 1197.06 915.793C1198.89 916.713 1200.95 917.172 1203.24 917.172 1206.21 917.172 1208.62 916.023 1210.45 913.724 1212.28 911.885 1213.19 909.242 1213.19 905.793 1213.19 903.724 1212.74 901.885 1211.82 900.276 1211.13 898.667 1209.99 897.517 1208.39 896.828 1206.78 895.908 1204.5 895.448 1201.52 895.448ZM1226.24 938.552 1226.24 889.931 1237.57 889.931C1243.29 889.931 1247.87 891.425 1251.31 894.414 1254.28 897.172 1255.77 901.196 1255.77 906.483 1255.77 911.081 1254.28 914.989 1251.31 918.207 1248.33 921.425 1244.55 923.035 1239.98 923.035 1237.69 923.035 1235.4 922.575 1233.11 921.655L1233.11 938.897 1226.24 938.897ZM1237.57 895.448 1233.11 895.448 1233.11 915.793C1234.94 916.713 1237 917.172 1239.29 917.172 1242.26 917.172 1244.67 916.023 1246.5 913.724 1248.33 911.885 1249.25 909.242 1249.25 905.793 1249.25 903.724 1248.79 901.885 1247.87 900.276 1247.19 898.667 1246.04 897.517 1244.44 896.828 1242.84 895.908 1240.55 895.448 1237.57 895.448ZM1262.98 872.69 1269.5 872.69 1269.5 922 1262.98 922 1262.98 872.69ZM1282.21 876.138C1283.12 876.138 1284.04 876.483 1284.95 877.173 1285.64 877.862 1285.98 878.667 1285.98 879.586 1285.98 880.736 1285.64 881.655 1284.95 882.345 1284.04 883.035 1283.12 883.379 1282.21 883.379 1281.06 883.379 1280.15 883.035 1279.46 882.345 1278.77 881.655 1278.43 880.736 1278.43 879.586 1278.43 878.667 1278.77 877.862 1279.46 877.173 1280.15 876.253 1281.06 875.793 1282.21 875.793ZM1278.77 889.931 1285.64 889.931 1285.64 922 1278.77 922 1278.77 889.931ZM1318.95 914.414 1318.95 920.966C1315.74 922.115 1312.54 922.69 1309.33 922.69 1304.3 922.69 1300.29 921.196 1297.32 918.207 1294.34 915.219 1292.85 911.196 1292.85 906.138 1292.85 900.851 1294.34 896.713 1297.32 893.724 1300.06 890.506 1303.84 888.896 1308.65 888.896 1310.48 888.896 1311.96 889.127 1313.11 889.586L1318.26 891.31 1318.26 898.207C1315.06 895.908 1311.96 894.759 1308.99 894.759 1306.24 894.759 1303.95 895.908 1302.12 898.207 1300.29 900.046 1299.38 902.575 1299.38 905.793 1299.38 909.242 1300.29 911.885 1302.12 913.724 1304.41 915.793 1307.16 916.828 1310.36 916.828 1312.65 916.828 1315.51 916.023 1318.95 914.414ZM1346.41 902.69 1346.41 916.483C1346.41 917.632 1346.76 918.207 1347.44 918.207 1348.36 918.207 1349.62 917.632 1351.22 916.483L1351.22 920.276 1347.79 922 1345.04 922.69C1342.29 922.69 1340.69 921.541 1340.23 919.241 1337.49 921.541 1334.51 922.69 1331.31 922.69 1329.02 922.69 1327.19 921.885 1325.81 920.276 1324.21 918.897 1323.41 917.058 1323.41 914.759 1323.41 912.69 1324.21 910.851 1325.81 909.242 1327.19 907.632 1329.25 906.368 1331.99 905.448L1340.23 902.69 1340.23 900.966C1340.23 897.058 1338.29 895.103 1334.4 895.103 1330.73 895.103 1327.3 896.828 1324.1 900.276L1324.1 893.379C1326.39 890.391 1329.93 888.896 1334.74 888.896 1338.4 888.896 1341.26 889.816 1343.32 891.655L1345.04 894.069C1345.73 894.989 1346.07 896.023 1346.07 897.172L1346.41 902.69ZM1340.58 915.793 1340.58 906.138 1336.11 907.862C1333.82 908.552 1332.34 909.356 1331.65 910.276 1330.73 911.196 1330.28 912.345 1330.28 913.724 1330.28 915.104 1330.73 916.253 1331.65 917.172 1332.34 917.862 1333.48 918.207 1335.08 918.207 1336.92 918.207 1338.75 917.403 1340.58 915.793ZM1352.25 894.759 1364.61 883.035 1364.61 889.931 1374.91 889.931 1374.91 895.448 1364.61 895.448 1364.61 911.31C1364.61 914.989 1366.1 916.828 1369.08 916.828 1371.36 916.828 1373.77 916.138 1376.29 914.759L1376.29 920.621C1374 922 1371.36 922.69 1368.39 922.69 1365.41 922.69 1362.9 921.885 1360.84 920.276L1359.46 918.552 1358.43 915.793 1358.09 909.931 1358.09 895.448 1352.25 895.448 1352.25 894.759ZM1384.18 876.138C1385.33 876.138 1386.24 876.483 1386.93 877.173 1387.85 877.862 1388.3 878.667 1388.3 879.586 1388.3 880.736 1387.85 881.655 1386.93 882.345 1386.24 883.035 1385.33 883.379 1384.18 883.379 1383.27 883.379 1382.47 883.035 1381.78 882.345 1381.09 881.655 1380.75 880.736 1380.75 879.586 1380.75 878.667 1381.09 877.862 1381.78 877.173 1382.47 876.253 1383.27 875.793 1384.18 875.793ZM1381.09 889.931 1387.62 889.931 1387.62 922 1381.09 922 1381.09 889.931ZM1412.34 889.586C1417.14 889.586 1421.27 891.196 1424.7 894.414 1427.9 897.632 1429.51 901.655 1429.51 906.483 1429.51 911.081 1427.79 914.989 1424.36 918.207 1421.15 921.196 1417.03 922.69 1411.99 922.69 1407.19 922.69 1403.18 921.08 1399.98 917.862 1396.54 914.874 1394.83 910.966 1394.83 906.138 1394.83 901.541 1396.54 897.632 1399.98 894.414 1403.18 891.196 1407.3 889.586 1412.34 889.586ZM1411.99 895.448C1408.79 895.448 1406.27 896.368 1404.44 898.207 1402.38 900.506 1401.35 903.149 1401.35 906.138 1401.35 909.127 1402.38 911.656 1404.44 913.724 1406.5 915.793 1409.13 916.828 1412.34 916.828 1415.31 916.828 1417.83 915.793 1419.89 913.724 1421.95 911.656 1422.98 909.127 1422.98 906.138 1422.98 902.92 1421.84 900.276 1419.55 898.207 1417.72 896.368 1415.2 895.448 1411.99 895.448ZM1442.9 889.931 1442.9 893.379C1445.87 890.161 1449.08 888.552 1452.51 888.552 1454.8 888.552 1456.74 889.127 1458.35 890.276 1459.95 891.196 1461.21 892.575 1462.12 894.414 1463.04 896.253 1463.5 899.127 1463.5 903.035L1463.5 921.655 1457.32 921.655 1457.32 903.724C1457.32 900.276 1456.74 897.862 1455.6 896.483 1454.68 895.103 1453.08 894.414 1450.79 894.414 1447.59 894.414 1444.96 895.908 1442.9 898.897L1442.9 922 1436.72 922 1436.72 889.931 1443.58 889.931ZM1471.05 919.931 1471.05 913.034 1476.54 916.138C1478.37 916.828 1479.98 917.172 1481.35 917.172 1482.72 917.172 1483.87 916.828 1484.78 916.138 1485.7 915.448 1486.16 914.644 1486.16 913.724 1486.16 912.805 1485.82 912 1485.13 911.31L1481.35 908.897C1477.23 906.598 1474.48 904.529 1473.11 902.69 1471.74 901.08 1471.05 899.356 1471.05 897.517 1471.05 894.989 1472.08 892.92 1474.14 891.31 1475.97 889.701 1478.49 888.896 1481.69 888.896 1484.9 888.896 1488.11 889.816 1491.31 891.655L1491.31 897.862C1487.42 895.563 1484.33 894.414 1482.04 894.414 1480.66 894.414 1479.63 894.759 1478.95 895.448 1478.26 895.908 1477.92 896.598 1477.92 897.517 1477.92 898.207 1478.26 898.897 1478.95 899.586L1482.38 902 1484.78 903.379C1490.28 906.368 1493.03 909.816 1493.03 913.724 1493.03 916.253 1491.88 918.437 1489.59 920.276 1487.76 921.885 1485.13 922.69 1481.69 922.69 1479.86 922.69 1478.15 922.46 1476.54 922L1471.05 919.931ZM1495.77 922.69 1509.85 872 1515 872 1500.92 922.69 1495.77 922.69ZM1256.11 1001.31 1256.11 952 1272.94 952C1279.58 952 1284.84 953.035 1288.73 955.103 1292.62 957.172 1295.71 960.161 1298 964.069 1300.29 967.976 1301.44 972.231 1301.44 976.828 1301.44 980.045 1300.75 983.148 1299.38 986.138 1298.23 989.128 1296.51 991.769 1294.23 994.069 1291.94 996.369 1289.07 998.207 1285.64 999.586L1280.49 1000.97 1271.91 1001.31 1256.11 1001.31ZM1271.91 958.207 1263.32 958.207 1263.32 995.104 1271.91 995.104C1275.34 995.104 1278.09 994.872 1280.15 994.414 1281.98 993.956 1283.58 993.266 1284.95 992.345 1286.33 991.655 1287.47 990.735 1288.39 989.587 1292.05 986.138 1293.88 981.769 1293.88 976.483 1293.88 971.197 1292.05 966.828 1288.39 963.38L1283.92 960.276 1279.12 958.552 1271.91 958.552ZM1316.2 968.897 1316.2 976.483 1316.54 975.794C1319.75 970.735 1322.84 968.207 1325.81 968.207 1328.1 968.207 1330.62 969.355 1333.37 971.655L1329.93 977.517C1327.64 975.448 1325.58 974.414 1323.75 974.414 1321.69 974.414 1319.98 975.448 1318.6 977.517 1317 979.355 1316.2 981.655 1316.2 984.414L1316.2 1001.66 1309.68 1001.66 1309.68 968.897 1316.54 968.897ZM1341.26 955.448C1342.41 955.448 1343.32 955.678 1344.01 956.138 1344.7 957.058 1345.04 957.977 1345.04 958.897 1345.04 960.046 1344.7 960.966 1344.01 961.655 1343.32 962.345 1342.41 962.69 1341.26 962.69 1340.35 962.69 1339.43 962.345 1338.52 961.655 1337.83 960.966 1337.49 960.046 1337.49 958.897 1337.49 957.977 1337.83 957.172 1338.52 956.483 1339.43 955.563 1340.35 955.103 1341.26 955.103ZM1337.83 968.897 1344.7 968.897 1344.7 1001.31 1337.83 1001.31 1337.83 969.242ZM1373.54 968.897 1380.41 968.897 1366.33 1002 1363.93 1002 1349.5 968.897 1356.37 968.897 1364.96 988.897 1373.54 968.897ZM1411.31 985.793 1388.65 985.793C1388.65 988.783 1389.79 991.197 1392.08 993.035 1393.68 994.872 1395.97 995.793 1398.95 995.793 1403.52 995.793 1407.53 994.528 1410.96 992L1410.96 998.207C1408.9 999.586 1406.96 1000.51 1405.13 1000.97 1403.07 1001.66 1400.78 1002 1398.26 1002 1394.6 1002 1391.74 1001.2 1389.68 999.586 1387.39 998.207 1385.56 996.252 1384.18 993.724 1382.81 991.197 1382.12 988.321 1382.12 985.104 1382.12 980.045 1383.61 976.024 1386.59 973.035 1389.33 969.818 1392.88 968.207 1397.23 968.207 1401.58 968.207 1405.01 969.7 1407.53 972.69 1410.05 975.679 1411.31 979.7 1411.31 984.759L1411.31 985.793ZM1388.65 982 1405.13 982C1405.13 979.242 1404.33 977.173 1402.72 975.794 1401.35 974.414 1399.52 973.725 1397.23 973.725 1394.94 973.725 1393.11 974.414 1391.74 975.794 1390.13 977.173 1389.1 979.242 1388.65 982ZM1425.04 968.897 1425.04 976.483 1425.39 975.794C1428.59 970.735 1431.8 968.207 1435 968.207 1437.29 968.207 1439.81 969.355 1442.55 971.655L1439.12 977.517C1436.83 975.448 1434.77 974.414 1432.94 974.414 1430.65 974.414 1428.82 975.448 1427.45 977.517 1425.84 979.355 1425.04 981.655 1425.04 984.414L1425.04 1001.66 1418.86 1001.66 1418.86 968.897 1425.04 968.897ZM1445.3 999.241 1445.3 992.345 1450.79 995.104C1452.85 996.024 1454.46 996.483 1455.6 996.483 1456.97 996.483 1458.12 996.138 1459.03 995.448 1459.95 994.759 1460.41 993.956 1460.41 993.035 1460.41 992.114 1460.18 991.311 1459.72 990.621L1455.6 987.862C1451.48 985.562 1448.73 983.611 1447.36 982 1446.22 980.39 1445.64 978.666 1445.64 976.828 1445.64 974.3 1446.56 972.231 1448.39 970.621 1450.45 969.011 1452.97 968.207 1455.94 968.207 1459.15 968.207 1462.35 969.128 1465.56 970.966L1465.56 977.173C1461.89 974.872 1458.8 973.725 1456.29 973.725 1455.14 973.725 1454.11 974.069 1453.2 974.759 1452.51 975.218 1452.17 975.907 1452.17 976.828 1452.17 977.517 1452.51 978.207 1453.2 978.897L1456.63 981.31 1459.03 982.69C1464.53 985.68 1467.27 989.128 1467.27 993.035 1467.27 995.562 1466.13 997.748 1463.84 999.586 1462.01 1001.2 1459.49 1002 1456.29 1002 1454.23 1002 1452.51 1001.77 1451.14 1001.31L1445.3 999.241Z" fill="#4F4C4B" fill-rule="evenodd" fill-opacity="1"/><text fill="#FFFFFF" fill-opacity="1" font-family="Lucida Sans,Lucida Sans_MSFontService,sans-serif" font-style="normal" font-variant="normal" font-weight="400" font-stretch="normal" font-size="55" text-anchor="start" direction="ltr" writing-mode="lr-tb" unicode-bidi="normal" text-decoration="none" transform="matrix(1 0 0 1 1813.74 1313)">(</text><text fill="#FFFFFF" fill-opacity="1" font-family="Lucida Sans,Lucida Sans_MSFontService,sans-serif" font-style="normal" font-variant="normal" font-weight="400" font-stretch="normal" font-size="55" text-anchor="start" direction="ltr" writing-mode="lr-tb" unicode-bidi="normal" text-decoration="none" transform="matrix(1 0 0 1 1831.5 1313)">t</text><text fill="#FFFFFF" fill-opacity="1" font-family="Lucida Sans,Lucida Sans_MSFontService,sans-serif" font-style="normal" font-variant="normal" font-weight="400" font-stretch="normal" font-size="55" text-anchor="start" direction="ltr" writing-mode="lr-tb" unicode-bidi="normal" text-decoration="none" transform="matrix(1 0 0 1 1852.13 1313)">aps)</text></g></g></svg>